<svg width="23" height="33" viewBox="0 0 23 33" fill="none" xmlns="http://www.w3.org/2000/svg">
<g clip-path="url(#clip0)">
<path d="M15.4152 11.8799C15.0488 11.8799 14.752 12.2236 14.752 12.6478V27.1612C14.752 27.5851 15.0488 27.9291 15.4152 27.9291C15.7815 27.9291 16.0784 27.5851 16.0784 27.1612V12.6478C16.0784 12.2236 15.7815 11.8799 15.4152 11.8799Z" fill="#FFB332"/>
<path d="M7.58997 11.8799C7.22365 11.8799 6.92676 12.2236 6.92676 12.6478V27.1612C6.92676 27.5851 7.22365 27.9291 7.58997 27.9291C7.95628 27.9291 8.25317 27.5851 8.25317 27.1612V12.6478C8.25317 12.2236 7.95628 11.8799 7.58997 11.8799Z" fill="#FFB332"/>
<path d="M1.8836 9.76178V28.6813C1.8836 29.7996 2.23774 30.8498 2.85638 31.6033C3.47217 32.3589 4.32915 32.7878 5.22602 32.7896H17.774C18.6711 32.7878 19.5281 32.3589 20.1436 31.6033C20.7623 30.8498 21.1164 29.7996 21.1164 28.6813V9.76178C22.3462 9.38383 23.1431 8.0082 22.9785 6.54708C22.8138 5.08627 21.7389 3.9935 20.4664 3.9932H17.0709V3.03332C17.0748 2.22612 16.7991 1.45102 16.3056 0.880791C15.8121 0.310862 15.1416 -0.00649828 14.4445 0.000100896H8.55549C7.85836 -0.00649828 7.1879 0.310862 6.69439 0.880791C6.20087 1.45102 5.92523 2.22612 5.92912 3.03332V3.9932H2.53358C1.26107 3.9935 0.186219 5.08627 0.0214549 6.54708C-0.14305 8.0082 0.653827 9.38383 1.8836 9.76178ZM17.774 31.2538H5.22602C4.09211 31.2538 3.21 30.1259 3.21 28.6813V9.82928H19.79V28.6813C19.79 30.1259 18.9079 31.2538 17.774 31.2538ZM7.25552 3.03332C7.25111 2.63347 7.38686 2.24862 7.63194 1.96636C7.87675 1.68409 8.2099 1.52901 8.55549 1.53591H14.4445C14.7901 1.52901 15.1232 1.68409 15.3681 1.96636C15.6131 2.24832 15.7489 2.63347 15.7445 3.03332V3.9932H7.25552V3.03332ZM2.53358 5.52901H20.4664C21.1257 5.52901 21.6602 6.14783 21.6602 6.91124C21.6602 7.67464 21.1257 8.29347 20.4664 8.29347H2.53358C1.87427 8.29347 1.33982 7.67464 1.33982 6.91124C1.33982 6.14783 1.87427 5.52901 2.53358 5.52901Z" fill="#FFB332"/>
<path d="M11.4981 11.8799C11.1318 11.8799 10.835 12.2236 10.835 12.6478V27.1612C10.835 27.5851 11.1318 27.9291 11.4981 27.9291C11.8644 27.9291 12.1613 27.5851 12.1613 27.1612V12.6478C12.1613 12.2236 11.8644 11.8799 11.4981 11.8799Z" fill="#FFB332"/>
</g>
<defs>
<clipPath id="clip0">
<rect width="23" height="33" fill="white"/>
</clipPath>
</defs>
</svg>
