<svg width="347" height="97" viewBox="0 0 347 97" fill="none" xmlns="http://www.w3.org/2000/svg">
<path d="M128.662 74.5519C128.498 74.5519 128.443 74.4419 128.388 74.2768L122.14 37.9637C122.085 37.7987 122.14 37.7437 122.305 37.7437H128.224C128.388 37.7437 128.443 37.7987 128.498 37.9637L131.896 61.8423L135.404 37.9637C135.459 37.7987 135.568 37.7437 135.733 37.7437H140.501C140.666 37.7437 140.721 37.7987 140.775 37.9637L144.228 61.8423L147.681 37.9637C147.736 37.7987 147.791 37.7437 147.955 37.7437H153.82C153.985 37.7437 154.094 37.7987 154.039 37.9637L147.736 74.2768C147.681 74.3319 147.627 74.4419 147.462 74.5519H141.049C140.94 74.5519 140.83 74.4419 140.775 74.2768L138.09 55.295L135.404 74.2768C135.349 74.4419 135.294 74.5519 135.13 74.5519H128.662Z" fill="#006FB9"/>
<path d="M166.207 75.0471C164.289 75.0471 162.535 74.5519 161 73.6165C159.411 72.6262 158.15 71.3607 157.218 69.7652C156.287 68.1696 155.793 66.4089 155.793 64.4832L155.848 47.7572C155.848 45.8315 156.341 44.0709 157.273 42.4753C158.205 40.8797 159.466 39.6143 161.055 38.6789C162.644 37.7436 164.398 37.2484 166.262 37.2484C168.18 37.2484 169.879 37.7436 171.469 38.6789C173.004 39.6143 174.264 40.8797 175.196 42.4753C176.128 44.0709 176.621 45.8315 176.621 47.7572L176.676 64.4832C176.676 66.4089 176.183 68.1696 175.251 69.7652C174.319 71.3607 173.058 72.6262 171.469 73.6165C169.825 74.6069 168.071 75.0471 166.207 75.0471ZM166.207 68.6648C167.249 68.6648 168.18 68.2246 169.002 67.3443C169.825 66.464 170.208 65.5286 170.208 64.4282L170.153 47.7022C170.153 46.5468 169.77 45.5564 169.057 44.7311C168.29 43.9058 167.358 43.5207 166.262 43.5207C165.166 43.5207 164.234 43.9058 163.467 44.7311C162.699 45.5014 162.316 46.4917 162.316 47.7022V64.4282C162.316 65.5836 162.699 66.574 163.467 67.3993C164.124 68.2796 165.111 68.6648 166.207 68.6648Z" fill="#006FB9"/>
<path d="M180.129 74.5519C179.964 74.5519 179.91 74.4419 179.91 74.2768L180.019 37.9637C180.019 37.7987 180.074 37.7437 180.238 37.7437H190.981C192.899 37.7437 194.653 38.1838 196.243 39.1191C197.832 40.0545 199.148 41.3199 200.08 42.8605C201.011 44.4011 201.505 46.2167 201.505 48.1424C201.505 49.4629 201.285 50.6183 200.902 51.6637C200.518 52.7091 200.08 53.5894 199.531 54.3046C198.983 55.0199 198.545 55.5701 198.106 55.9002C200.025 57.991 200.957 60.5219 200.957 63.3279L201.011 74.1668C201.011 74.3319 200.902 74.4419 200.737 74.4419H194.763C194.599 74.4419 194.544 74.3869 194.544 74.2768V63.3279C194.544 62.0624 194.105 60.962 193.174 60.0267C192.297 59.0914 191.146 58.6512 189.83 58.6512H186.322L186.267 74.1668C186.267 74.3319 186.213 74.4419 186.048 74.4419H180.129V74.5519ZM186.432 52.434H190.981C192.077 52.434 193.064 52.0488 193.886 51.2235C194.708 50.3982 195.147 49.4079 195.147 48.2524C195.147 47.152 194.708 46.1617 193.886 45.3364C193.064 44.5111 192.077 44.126 190.926 44.126H186.377V52.434H186.432Z" fill="#006FB9"/>
<path d="M204.903 74.5519C204.738 74.5519 204.684 74.4419 204.684 74.2768L204.793 38.0188C204.793 37.8537 204.848 37.7437 205.012 37.7437H210.932C211.096 37.7437 211.151 37.8537 211.151 38.0188V50.5633L219.482 38.0188C219.592 37.8537 219.701 37.7987 219.866 37.7987H225.95C226.114 37.7987 226.114 37.8537 226.059 38.0188L216.906 52.599L227.21 74.3869C227.265 74.5519 227.21 74.607 226.936 74.607H220.469C220.304 74.607 220.195 74.5519 220.14 74.3869L212.96 58.8713L211.096 61.7873V74.3319C211.096 74.4969 211.042 74.607 210.877 74.607H204.903V74.5519Z" fill="#006FB9"/>
<path d="M228.745 74.2768L235.322 37.9637C235.377 37.7987 235.432 37.7437 235.596 37.7437H243.27C243.434 37.7437 243.489 37.7987 243.544 37.9637L249.847 74.2768C249.902 74.4419 249.792 74.5519 249.628 74.5519H243.763C243.599 74.5519 243.544 74.4419 243.489 74.2768L242.886 70.4254H235.651L235.048 74.2768C234.993 74.4419 234.939 74.5519 234.774 74.5519H228.91C228.8 74.5519 228.745 74.4419 228.745 74.2768ZM236.747 64.7584H241.845L239.652 49.903L239.323 47.9223L239.104 49.903L236.747 64.7584Z" fill="#006FB9"/>
<path d="M252.916 74.5519C252.752 74.5519 252.642 74.4418 252.642 74.2768L252.752 37.9637C252.752 37.7986 252.807 37.7436 252.971 37.7436L262.892 37.6886C264.81 37.6336 266.619 38.1287 268.208 39.0641C269.798 39.9994 271.113 41.2649 272.045 42.9155C272.977 44.5111 273.47 46.2717 273.47 48.1974V63.3829C273.47 65.4186 272.977 67.2893 271.99 68.9399C271.003 70.5905 269.688 71.966 267.989 72.9013C266.345 73.8916 264.426 74.3868 262.343 74.4418L252.916 74.5519ZM259.164 68.0595H262.453C263.768 68.0595 264.865 67.6194 265.796 66.684C266.673 65.7487 267.167 64.7033 267.167 63.3829V48.1974C267.167 47.097 266.728 46.1066 265.906 45.2813C265.084 44.456 264.097 44.0709 262.946 44.0709L259.219 44.1259L259.164 68.0595Z" fill="#006FB9"/>
<path d="M277.252 74.5519C277.087 74.5519 277.033 74.4419 277.033 74.2768L277.087 37.9637C277.087 37.7987 277.142 37.7437 277.307 37.7437H294.352C294.517 37.7437 294.572 37.8537 294.572 38.0188V43.9609C294.572 44.126 294.517 44.181 294.352 44.181H283.5V52.434H294.352C294.517 52.434 294.572 52.489 294.572 52.654L294.626 58.5962C294.626 58.7612 294.572 58.8163 294.407 58.8163H283.5V68.0596H294.352C294.517 68.0596 294.572 68.1696 294.572 68.3347V74.3319C294.572 74.4969 294.517 74.5519 294.352 74.5519H277.252Z" fill="#006FB9"/>
<path d="M298.463 74.5519C298.299 74.5519 298.244 74.4419 298.244 74.2768L298.353 37.9637C298.353 37.7987 298.408 37.7437 298.573 37.7437H305.04C305.205 37.7437 305.314 37.7987 305.424 37.9637L310.247 44.9513L315.07 37.9637C315.18 37.7987 315.29 37.7437 315.454 37.7437H321.977C322.141 37.7437 322.196 37.7987 322.196 37.9637L322.305 74.2768C322.305 74.4419 322.251 74.5519 322.086 74.5519H316.112C315.947 74.5519 315.893 74.4419 315.893 74.2768L315.838 47.3171L310.247 55.35L304.711 47.3171L304.657 74.2768C304.657 74.4419 304.602 74.5519 304.437 74.5519H298.463Z" fill="#006FB9"/>
<path d="M331.787 74.5519C331.678 74.5519 331.623 74.4969 331.623 74.3319L331.678 59.3114L324.553 37.9637C324.498 37.7987 324.553 37.7437 324.717 37.7437H330.582C330.746 37.7437 330.856 37.7987 330.91 37.9637L334.857 52.1589L338.858 37.9637C338.913 37.7987 338.967 37.7437 339.132 37.7437H345.051C345.216 37.7437 345.271 37.7987 345.216 37.9637L338.036 59.0914L338.091 74.2768C338.091 74.4419 338.036 74.4969 337.871 74.4969H331.787V74.5519Z" fill="#006FB9"/>
<path d="M120.496 96.7799L122.469 85.8859C122.469 85.8309 122.524 85.8309 122.524 85.8309H124.826C124.881 85.8309 124.881 85.8309 124.881 85.8859L126.799 96.7799C126.799 96.8349 126.799 96.8349 126.744 96.8349H124.99C124.935 96.8349 124.935 96.8349 124.935 96.7799L124.771 95.6245H122.579L122.414 96.7799C122.414 96.8349 122.359 96.8349 122.359 96.8349H120.605C120.496 96.8349 120.496 96.8349 120.496 96.7799ZM122.907 93.9188H124.442L123.784 89.4622L123.675 88.857L123.62 89.4622L122.907 93.9188Z" fill="#006FB9"/>
<path d="M130.416 97C129.813 97 129.32 96.8349 128.827 96.5598C128.334 96.2847 128.005 95.8996 127.731 95.4044C127.457 94.9092 127.292 94.359 127.292 93.7538V88.802C127.292 88.1968 127.402 87.7016 127.676 87.2064C127.95 86.7112 128.334 86.3261 128.772 86.051C129.265 85.7759 129.759 85.6108 130.362 85.6108C130.964 85.6108 131.458 85.7759 131.951 86.051C132.444 86.3261 132.773 86.7112 133.047 87.2064C133.321 87.7016 133.486 88.1968 133.486 88.802V89.5173C133.486 89.5723 133.486 89.5723 133.431 89.5723H131.622C131.567 89.5723 131.567 89.5723 131.567 89.5173V88.802C131.567 88.4719 131.458 88.1418 131.239 87.9217C131.019 87.6466 130.745 87.5365 130.362 87.5365C129.978 87.5365 129.704 87.6466 129.485 87.9217C129.265 88.1968 129.156 88.4719 129.156 88.802V93.7538C129.156 94.1389 129.265 94.469 129.485 94.6891C129.704 94.9092 129.978 95.0743 130.307 95.0743C130.636 95.0743 130.91 94.9642 131.184 94.6891C131.403 94.414 131.513 94.1389 131.513 93.7538V93.0385C131.513 92.9835 131.513 92.9835 131.567 92.9835H133.376C133.431 92.9835 133.431 92.9835 133.431 93.0385V93.7538C133.431 94.359 133.267 94.9092 132.992 95.4044C132.718 95.8996 132.335 96.2847 131.896 96.5598C131.513 96.8349 131.019 97 130.416 97Z" fill="#006FB9"/>
<path d="M133.869 96.7799L135.842 85.8859C135.842 85.8309 135.897 85.8309 135.897 85.8309H138.199C138.254 85.8309 138.254 85.8309 138.254 85.8859L140.172 96.7799C140.172 96.8349 140.172 96.8349 140.118 96.8349H138.364C138.309 96.8349 138.309 96.8349 138.309 96.7799L138.144 95.6245H135.952L135.788 96.7799C135.788 96.8349 135.733 96.8349 135.733 96.8349H133.979C133.869 96.8349 133.869 96.8349 133.869 96.7799ZM136.281 93.9188H137.816L137.158 89.4622L137.048 88.857L136.993 89.4622L136.281 93.9188Z" fill="#006FB9"/>
<path d="M141.269 96.8349C141.214 96.8349 141.214 96.8349 141.214 96.7799L141.269 85.8859C141.269 85.8309 141.269 85.8309 141.323 85.8309H144.283C144.886 85.8309 145.379 85.941 145.873 86.2711C146.366 86.5462 146.75 86.9313 147.024 87.4265C147.298 87.9217 147.462 88.4169 147.462 89.0221V93.5887C147.462 94.1939 147.298 94.7441 147.024 95.2393C146.75 95.7345 146.311 96.1196 145.818 96.4498C145.325 96.7799 144.776 96.8899 144.119 96.8899L141.269 96.8349ZM143.132 94.9092H144.119C144.502 94.9092 144.831 94.7992 145.105 94.5241C145.379 94.249 145.489 93.9189 145.489 93.5337V88.9671C145.489 88.6369 145.379 88.3618 145.105 88.0867C144.831 87.8116 144.557 87.7016 144.228 87.7566H143.132V94.9092Z" fill="#006FB9"/>
<path d="M148.778 96.8349C148.723 96.8349 148.723 96.8349 148.723 96.7799V85.8859C148.723 85.8309 148.723 85.8309 148.778 85.8309H153.875C153.93 85.8309 153.93 85.8309 153.93 85.8859V87.6466C153.93 87.7016 153.93 87.7016 153.875 87.7016H150.586V90.1775H153.875C153.93 90.1775 153.93 90.1775 153.93 90.2325V92.0482C153.93 92.1032 153.93 92.1032 153.875 92.1032H150.586V94.8542H153.875C153.93 94.8542 153.93 94.8542 153.93 94.9092V96.7249C153.93 96.7799 153.93 96.7799 153.875 96.7799H148.778V96.8349Z" fill="#006FB9"/>
<path d="M155.464 96.8349C155.41 96.8349 155.41 96.8349 155.41 96.7799L155.464 85.8859C155.464 85.8309 155.464 85.8309 155.519 85.8309H157.438C157.492 85.8309 157.492 85.8309 157.547 85.8859L158.972 87.9767L160.397 85.8859C160.452 85.8309 160.452 85.8309 160.507 85.8309H162.48C162.535 85.8309 162.535 85.8309 162.535 85.8859L162.59 96.7799C162.59 96.8349 162.59 96.8349 162.535 96.8349H160.726C160.671 96.8349 160.671 96.8349 160.671 96.7799V88.692L158.972 91.1128L157.328 88.692V96.7799C157.328 96.8349 157.328 96.8349 157.273 96.8349H155.464Z" fill="#006FB9"/>
<path d="M165.44 96.8349C165.385 96.8349 165.385 96.8349 165.385 96.7799V92.2683L163.247 85.8859C163.247 85.8309 163.247 85.8309 163.302 85.8309H165.056C165.111 85.8309 165.166 85.8309 165.166 85.8859L166.317 90.1225L167.523 85.8859C167.523 85.8309 167.577 85.8309 167.577 85.8309H169.386C169.441 85.8309 169.441 85.8309 169.441 85.8859L167.303 92.2132V96.7799C167.303 96.8349 167.303 96.8349 167.248 96.8349H165.44Z" fill="#006FB9"/>
<path d="M172.51 96.7799L174.483 85.8859C174.483 85.8309 174.538 85.8309 174.538 85.8309H176.84C176.895 85.8309 176.895 85.8309 176.895 85.8859L178.813 96.7799C178.813 96.8349 178.813 96.8349 178.759 96.8349H177.005C176.95 96.8349 176.95 96.8349 176.95 96.7799L176.785 95.6245H174.593L174.429 96.7799C174.429 96.8349 174.374 96.8349 174.374 96.8349H172.62C172.565 96.8349 172.51 96.8349 172.51 96.7799ZM174.922 93.9188H176.457L175.799 89.4622L175.689 88.857L175.634 89.4622L174.922 93.9188Z" fill="#006FB9"/>
<path d="M180.677 96.8349C180.622 96.8349 180.622 96.8349 180.622 96.7799V87.7567H178.539C178.485 87.7567 178.485 87.7567 178.485 87.7016V85.941C178.485 85.886 178.485 85.886 178.539 85.886H184.568C184.623 85.886 184.623 85.886 184.623 85.941V87.7016C184.623 87.7567 184.623 87.7567 184.568 87.7567H182.54V96.7799C182.54 96.8349 182.54 96.8349 182.486 96.8349H180.677Z" fill="#006FB9"/>
<path d="M189.282 96.8349C189.227 96.8349 189.227 96.8349 189.227 96.7799L187.364 85.8859C187.364 85.8309 187.364 85.8309 187.418 85.8309H189.227C189.282 85.8309 189.282 85.8309 189.282 85.8859L190.323 93.0385L191.365 85.8859C191.365 85.8309 191.42 85.8309 191.474 85.8309H192.899C192.954 85.8309 192.954 85.8309 192.954 85.8859L193.996 93.0385L195.037 85.8859C195.037 85.8309 195.092 85.8309 195.092 85.8309H196.846C196.901 85.8309 196.901 85.8309 196.901 85.8859L194.982 96.7799L194.927 96.8349H193.009C192.954 96.8349 192.954 96.8349 192.954 96.7799L192.132 91.1128L191.31 96.7799C191.31 96.8349 191.255 96.8349 191.255 96.8349H189.282Z" fill="#006FB9"/>
<path d="M200.463 97C199.915 97 199.367 96.8349 198.874 96.5598C198.38 96.2847 197.997 95.8996 197.723 95.4044C197.449 94.9092 197.284 94.414 197.284 93.8088V88.802C197.284 88.1968 197.449 87.7016 197.723 87.2064C197.997 86.7112 198.38 86.3261 198.874 86.051C199.367 85.7759 199.86 85.6108 200.408 85.6108C200.957 85.6108 201.505 85.7759 201.943 86.051C202.436 86.3261 202.765 86.7112 203.039 87.2064C203.313 87.7016 203.478 88.1968 203.478 88.802V93.8088C203.478 94.414 203.313 94.9092 203.039 95.4044C202.765 95.8996 202.382 96.2847 201.888 96.5598C201.559 96.8349 201.011 97 200.463 97ZM200.463 95.0743C200.792 95.0743 201.066 94.9642 201.285 94.6891C201.505 94.414 201.669 94.1389 201.669 93.8088V88.802C201.669 88.4719 201.559 88.1418 201.34 87.9217C201.121 87.7016 200.847 87.5365 200.518 87.5365C200.189 87.5365 199.915 87.6466 199.696 87.8667C199.477 88.0867 199.367 88.4169 199.367 88.747V93.7538C199.367 94.0839 199.477 94.414 199.696 94.6341C199.86 94.9642 200.134 95.0743 200.463 95.0743Z" fill="#006FB9"/>
<path d="M204.848 96.8349C204.793 96.8349 204.793 96.8349 204.793 96.7799L204.848 85.8859C204.848 85.8309 204.848 85.8309 204.903 85.8309H208.137C208.685 85.8309 209.233 85.996 209.726 86.2711C210.219 86.5462 210.603 86.9313 210.877 87.3715C211.151 87.8667 211.316 88.3618 211.316 88.9671C211.316 89.3522 211.261 89.6823 211.151 90.0124C211.042 90.3426 210.877 90.5626 210.713 90.7827C210.548 91.0028 210.384 91.1679 210.274 91.2779C210.822 91.9381 211.151 92.6534 211.151 93.5337V96.7799C211.151 96.8349 211.151 96.8349 211.096 96.8349H209.288C209.233 96.8349 209.233 96.8349 209.233 96.7799V93.4787C209.233 93.0936 209.123 92.7634 208.849 92.4883C208.575 92.2132 208.246 92.0482 207.863 92.0482H206.821V96.7249C206.821 96.7799 206.821 96.7799 206.766 96.7799H204.848V96.8349ZM206.712 90.2325H208.082C208.411 90.2325 208.685 90.1225 208.959 89.8474C209.233 89.6273 209.342 89.2972 209.342 88.9671C209.342 88.6369 209.233 88.3618 208.959 88.0867C208.685 87.8116 208.411 87.7016 208.082 87.7016H206.712V90.2325Z" fill="#006FB9"/>
<path d="M212.521 96.835C212.467 96.835 212.467 96.835 212.467 96.78L212.521 85.886C212.521 85.831 212.521 85.831 212.576 85.831H214.385C214.44 85.831 214.44 85.831 214.44 85.886V89.6274L216.961 85.831C217.016 85.776 217.016 85.776 217.071 85.776H218.879C218.934 85.776 218.934 85.776 218.934 85.831L216.194 90.1776L219.263 96.725C219.263 96.78 219.263 96.78 219.208 96.78H217.29C217.235 96.78 217.18 96.78 217.18 96.725L215.043 92.0483L214.495 92.9286V96.725C214.495 96.78 214.495 96.78 214.44 96.78H212.521V96.835Z" fill="#006FB9"/>
<path d="M220.14 96.835C220.085 96.835 220.085 96.835 220.085 96.78V94.9643C220.085 94.9093 220.085 94.9093 220.14 94.9093H221.949C222.003 94.9093 222.003 94.9093 222.003 94.9643V96.78C222.003 96.835 222.003 96.835 221.949 96.835H220.14Z" fill="#006FB9"/>
<path d="M225.511 96.7799L227.484 85.8859C227.484 85.8309 227.539 85.8309 227.539 85.8309H229.841C229.896 85.8309 229.896 85.8309 229.896 85.8859L231.814 96.7799C231.814 96.8349 231.814 96.8349 231.76 96.8349H230.006C229.951 96.8349 229.951 96.8349 229.951 96.7799L229.786 95.6245H227.594L227.43 96.7799C227.43 96.8349 227.375 96.8349 227.375 96.8349H225.621C225.511 96.8349 225.511 96.8349 225.511 96.7799ZM227.923 93.9188H229.458L228.8 89.4622L228.69 88.857L228.635 89.4622L227.923 93.9188Z" fill="#006FB9"/>
<path d="M235.432 97C234.829 97 234.336 96.8349 233.842 96.5598C233.349 96.2847 233.02 95.8996 232.746 95.4044C232.472 94.9092 232.308 94.359 232.308 93.7538V88.802C232.308 88.1968 232.417 87.7016 232.691 87.2064C232.965 86.7112 233.349 86.3261 233.788 86.051C234.281 85.7759 234.774 85.6108 235.377 85.6108C235.98 85.6108 236.473 85.7759 236.967 86.051C237.46 86.3261 237.789 86.7112 238.063 87.2064C238.337 87.7016 238.501 88.1968 238.501 88.802V89.5173C238.501 89.5723 238.501 89.5723 238.446 89.5723H236.638C236.583 89.5723 236.583 89.5723 236.583 89.5173V88.802C236.583 88.4719 236.473 88.1418 236.254 87.9217C236.035 87.6466 235.761 87.5365 235.377 87.5365C234.993 87.5365 234.719 87.6466 234.5 87.9217C234.281 88.1968 234.171 88.4719 234.171 88.802V93.7538C234.171 94.1389 234.281 94.469 234.5 94.6891C234.719 94.9092 234.993 95.0743 235.322 95.0743C235.651 95.0743 235.925 94.9642 236.199 94.6891C236.418 94.414 236.528 94.1389 236.528 93.7538V93.0385C236.528 92.9835 236.528 92.9835 236.583 92.9835H238.392C238.446 92.9835 238.446 92.9835 238.446 93.0385V93.7538C238.446 94.359 238.282 94.9092 238.008 95.4044C237.734 95.8996 237.35 96.2847 236.912 96.5598C236.528 96.8349 236.035 97 235.432 97Z" fill="#006FB9"/>
<path d="M239.159 96.7799L241.132 85.8859C241.132 85.8309 241.187 85.8309 241.187 85.8309H243.489C243.544 85.8309 243.544 85.8309 243.544 85.8859L245.462 96.7799C245.462 96.8349 245.462 96.8349 245.407 96.8349H243.653C243.599 96.8349 243.599 96.8349 243.599 96.7799L243.434 95.6245H241.242L241.077 96.7799C241.077 96.8349 241.022 96.8349 241.022 96.8349H239.269C239.159 96.8349 239.159 96.8349 239.159 96.7799ZM241.516 93.9188H243.05L242.393 89.4622L242.283 88.857L242.228 89.4622L241.516 93.9188Z" fill="#006FB9"/>
<path d="M246.558 96.8349C246.503 96.8349 246.503 96.8349 246.503 96.7799L246.558 85.8859C246.558 85.8309 246.558 85.8309 246.613 85.8309H249.573C250.176 85.8309 250.669 85.941 251.162 86.2711C251.656 86.5462 252.039 86.9313 252.313 87.4265C252.587 87.9217 252.752 88.4169 252.752 89.0221V93.5887C252.752 94.1939 252.587 94.7441 252.313 95.2393C252.039 95.7345 251.601 96.1196 251.107 96.4498C250.614 96.7799 250.066 96.8899 249.408 96.8899L246.558 96.8349ZM248.422 94.9092H249.408C249.792 94.9092 250.121 94.7992 250.395 94.5241C250.669 94.249 250.779 93.9189 250.779 93.5337V88.9671C250.779 88.6369 250.669 88.3618 250.395 88.0867C250.121 87.8116 249.847 87.7016 249.518 87.7566H248.422V94.9092Z" fill="#006FB9"/>
<path d="M254.067 96.8349C254.012 96.8349 254.012 96.8349 254.012 96.7799V85.8859C254.012 85.8309 254.012 85.8309 254.067 85.8309H259.164C259.219 85.8309 259.219 85.8309 259.219 85.8859V87.6466C259.219 87.7016 259.219 87.7016 259.164 87.7016H255.876V90.1775H259.164C259.219 90.1775 259.219 90.1775 259.219 90.2325V92.0482C259.219 92.1032 259.219 92.1032 259.164 92.1032H255.876V94.8542H259.164C259.219 94.8542 259.219 94.8542 259.219 94.9092V96.7249C259.219 96.7799 259.219 96.7799 259.164 96.7799H254.067V96.8349Z" fill="#006FB9"/>
<path d="M260.754 96.8349C260.699 96.8349 260.699 96.8349 260.699 96.7799L260.754 85.8859C260.754 85.8309 260.754 85.8309 260.809 85.8309H262.727C262.782 85.8309 262.782 85.8309 262.837 85.8859L264.262 87.9767L265.687 85.8859C265.742 85.8309 265.742 85.8309 265.797 85.8309H267.77C267.825 85.8309 267.825 85.8309 267.825 85.8859L267.879 96.7799C267.879 96.8349 267.879 96.8349 267.825 96.8349H266.016C265.961 96.8349 265.961 96.8349 265.961 96.7799V88.692L264.262 91.1128L262.618 88.692V96.7799C262.618 96.8349 262.618 96.8349 262.563 96.8349H260.754Z" fill="#006FB9"/>
<path d="M270.675 96.8349C270.62 96.8349 270.62 96.8349 270.62 96.7799V92.2683L268.482 85.8859C268.482 85.8309 268.482 85.8309 268.537 85.8309H270.291C270.346 85.8309 270.4 85.8309 270.4 85.8859L271.551 90.1225L272.757 85.8859C272.757 85.8309 272.812 85.8309 272.812 85.8309H274.621C274.676 85.8309 274.676 85.8309 274.676 85.8859L272.538 92.2132V96.7799C272.538 96.8349 272.538 96.8349 272.483 96.8349H270.675Z" fill="#006FB9"/>
<path d="M279.554 96.8349C279.499 96.8349 279.499 96.8349 279.499 96.7799V87.7567H277.416C277.361 87.7567 277.361 87.7567 277.361 87.7016V85.941C277.361 85.886 277.361 85.886 277.416 85.886H283.445C283.5 85.886 283.5 85.886 283.5 85.941V87.7016C283.5 87.7567 283.5 87.7567 283.445 87.7567H281.362V96.7799C281.362 96.8349 281.362 96.8349 281.308 96.8349H279.554Z" fill="#006FB9"/>
<path d="M284.377 96.8349C284.322 96.8349 284.322 96.8349 284.322 96.7799V85.8859C284.322 85.8309 284.322 85.8309 284.377 85.8309H286.131C286.186 85.8309 286.186 85.8309 286.186 85.8859V90.1775H288.597V85.8859C288.597 85.8309 288.597 85.8309 288.652 85.8309H290.406C290.461 85.8309 290.461 85.8309 290.461 85.8859L290.516 96.7799C290.516 96.8349 290.516 96.8349 290.461 96.8349H288.652C288.597 96.8349 288.597 96.8349 288.597 96.7799V92.1032H286.186V96.7799C286.186 96.8349 286.186 96.8349 286.131 96.8349H284.377Z" fill="#006FB9"/>
<path d="M291.338 96.7799L293.311 85.8859C293.311 85.8309 293.366 85.8309 293.366 85.8309H295.668C295.723 85.8309 295.723 85.8309 295.723 85.8859L297.641 96.7799C297.641 96.8349 297.641 96.8349 297.586 96.8349H295.832C295.777 96.8349 295.777 96.8349 295.777 96.7799L295.613 95.6245H293.421L293.256 96.7799C293.256 96.8349 293.201 96.8349 293.201 96.8349H291.447C291.338 96.8349 291.338 96.8349 291.338 96.7799ZM293.749 93.9188H295.284L294.626 89.4622L294.517 88.857L294.462 89.4622L293.749 93.9188Z" fill="#006FB9"/>
<path d="M299.505 96.8349C299.45 96.8349 299.45 96.8349 299.45 96.7799V87.7567H297.367C297.312 87.7567 297.312 87.7567 297.312 87.7016V85.941C297.312 85.886 297.312 85.886 297.367 85.886H303.396C303.451 85.886 303.451 85.886 303.451 85.941V87.7016C303.451 87.7567 303.451 87.7567 303.396 87.7567H301.313V96.7799C301.313 96.8349 301.313 96.8349 301.258 96.8349H299.505Z" fill="#006FB9"/>
<path d="M308.11 96.8349C308.055 96.8349 308.055 96.8349 308.055 96.7799L306.191 85.8859C306.191 85.8309 306.191 85.8309 306.246 85.8309H308.055C308.11 85.8309 308.11 85.8309 308.11 85.8859L309.151 93.0385L310.192 85.8859C310.192 85.8309 310.247 85.8309 310.302 85.8309H311.727C311.782 85.8309 311.782 85.8309 311.782 85.8859L312.823 93.0385L313.865 85.8859C313.865 85.8309 313.92 85.8309 313.92 85.8309H315.673C315.728 85.8309 315.728 85.8309 315.728 85.8859L313.81 96.7799L313.755 96.8349H311.837C311.782 96.8349 311.782 96.8349 311.782 96.7799L310.96 91.1128L310.138 96.7799C310.138 96.8349 310.083 96.8349 310.083 96.8349H308.11Z" fill="#006FB9"/>
<path d="M319.291 97C318.743 97 318.195 96.8349 317.701 96.5598C317.208 96.2847 316.824 95.8996 316.55 95.4044C316.276 94.9092 316.112 94.414 316.112 93.8088V88.802C316.112 88.1968 316.276 87.7016 316.55 87.2064C316.824 86.7112 317.208 86.3261 317.701 86.051C318.195 85.7759 318.688 85.6108 319.236 85.6108C319.784 85.6108 320.332 85.7759 320.771 86.051C321.264 86.3261 321.593 86.7112 321.867 87.2064C322.141 87.7016 322.305 88.1968 322.305 88.802V93.8088C322.305 94.414 322.141 94.9092 321.867 95.4044C321.593 95.8996 321.209 96.2847 320.716 96.5598C320.387 96.8349 319.839 97 319.291 97ZM319.291 95.0743C319.62 95.0743 319.894 94.9642 320.113 94.6891C320.332 94.414 320.497 94.1389 320.497 93.8088V88.802C320.497 88.4719 320.387 88.1418 320.168 87.9217C319.949 87.7016 319.674 87.5365 319.346 87.5365C319.017 87.5365 318.743 87.6466 318.523 87.8667C318.304 88.0867 318.195 88.4169 318.195 88.747V93.7538C318.195 94.0839 318.304 94.414 318.523 94.6341C318.688 94.9642 318.962 95.0743 319.291 95.0743Z" fill="#006FB9"/>
<path d="M323.676 96.8349C323.621 96.8349 323.621 96.8349 323.621 96.7799L323.676 85.8859C323.676 85.8309 323.676 85.8309 323.73 85.8309H326.964C327.512 85.8309 328.06 85.996 328.554 86.2711C329.047 86.5462 329.431 86.9313 329.705 87.3715C329.979 87.8667 330.143 88.3618 330.143 88.9671C330.143 89.3522 330.088 89.6823 329.979 90.0124C329.869 90.3426 329.705 90.5626 329.54 90.7827C329.376 91.0028 329.211 91.1679 329.102 91.2779C329.65 91.9381 329.979 92.6534 329.979 93.5337V96.7799C329.979 96.8349 329.979 96.8349 329.924 96.8349H328.115C328.06 96.8349 328.06 96.8349 328.06 96.7799V93.4787C328.06 93.0936 327.951 92.7634 327.677 92.4883C327.403 92.2132 327.074 92.0482 326.69 92.0482H325.649V96.7249C325.649 96.7799 325.649 96.7799 325.594 96.7799H323.676V96.8349ZM325.539 90.2325H326.909C327.238 90.2325 327.512 90.1225 327.786 89.8474C328.06 89.6273 328.17 89.2972 328.17 88.9671C328.17 88.6369 328.06 88.3618 327.786 88.0867C327.512 87.8667 327.238 87.7016 326.909 87.7016H325.539V90.2325Z" fill="#006FB9"/>
<path d="M331.349 96.835C331.294 96.835 331.294 96.835 331.294 96.78L331.349 85.886C331.349 85.831 331.349 85.831 331.404 85.831H333.213C333.267 85.831 333.267 85.831 333.267 85.886V89.6274L335.789 85.831C335.843 85.776 335.843 85.776 335.898 85.776H337.707C337.762 85.776 337.762 85.776 337.762 85.831L335.021 90.1776L338.091 96.725C338.091 96.78 338.091 96.78 338.036 96.78H336.008C335.953 96.78 335.898 96.78 335.898 96.725L333.761 92.0483L333.213 92.9286V96.725C333.213 96.78 333.213 96.78 333.158 96.78H331.349V96.835Z" fill="#006FB9"/>
<path d="M340.831 97C340.283 97 339.735 96.835 339.242 96.5599C338.748 96.2848 338.419 95.8996 338.091 95.4044C337.817 94.9093 337.652 94.4141 337.652 93.8089V93.0936C337.652 93.0386 337.652 93.0386 337.707 93.0386H339.516C339.57 93.0386 339.57 93.0386 339.57 93.0936V93.8089C339.57 94.139 339.68 94.4691 339.899 94.6892C340.119 94.9643 340.393 95.0743 340.721 95.0743C341.05 95.0743 341.324 94.9643 341.544 94.6892C341.763 94.4141 341.872 94.139 341.872 93.8089C341.872 93.4237 341.598 93.0936 341.105 92.8185C340.941 92.7085 340.667 92.5984 340.283 92.3783C339.899 92.1583 339.57 91.9932 339.242 91.8281C338.639 91.498 338.2 91.0579 337.926 90.5627C337.652 90.0675 337.488 89.4623 337.488 88.8021C337.488 88.1968 337.652 87.7017 337.926 87.2065C338.2 86.7113 338.584 86.3812 339.077 86.1061C339.57 85.831 340.064 85.7209 340.612 85.7209C341.16 85.7209 341.708 85.886 342.147 86.1611C342.64 86.4362 343.023 86.8213 343.298 87.2615C343.572 87.7567 343.736 88.2519 343.736 88.8571V90.1776C343.736 90.2326 343.736 90.2326 343.681 90.2326H341.872C341.818 90.2326 341.818 90.2326 341.818 90.1776V88.8571C341.818 88.4719 341.708 88.1968 341.489 87.9768C341.27 87.7567 340.996 87.6466 340.667 87.6466C340.338 87.6466 340.064 87.7567 339.845 88.0318C339.625 88.3069 339.516 88.582 339.516 88.9121C339.516 89.2422 339.57 89.5723 339.735 89.7924C339.899 90.0125 340.173 90.2326 340.557 90.4526C340.612 90.5077 340.721 90.5627 340.886 90.6177C341.05 90.6727 341.215 90.7828 341.379 90.8928C341.544 91.0029 341.708 91.0579 341.872 91.1679C342.037 91.2779 342.092 91.278 342.147 91.333C342.695 91.6081 343.078 91.9932 343.407 92.4334C343.736 92.8735 343.846 93.3687 343.846 94.0289C343.846 94.6342 343.681 95.1844 343.407 95.6795C343.133 96.1747 342.749 96.5599 342.256 96.835C341.927 96.89 341.434 97 340.831 97Z" fill="#006FB9"/>
<path d="M344.668 96.835C344.613 96.835 344.613 96.835 344.613 96.78V94.9643C344.613 94.9093 344.613 94.9093 344.668 94.9093H346.476C346.531 94.9093 346.531 94.9093 346.531 94.9643V96.78C346.531 96.835 346.531 96.835 346.476 96.835H344.668Z" fill="#006FB9"/>
<path d="M109.04 0H11.4791C11.1502 0 10.8762 0.275099 10.8762 0.605218V13.5899C10.8762 13.92 11.1502 14.1951 11.4791 14.1951H47.1603L32.3068 96.2297C32.3068 96.6699 32.4712 96.945 32.8549 96.945H48.3661C48.7497 96.945 48.969 96.7249 49.0786 96.2297L50.6133 86.0511H69.6323L71.1669 96.2297C71.2766 96.6699 71.4958 96.945 71.8795 96.945H87.3906C87.8291 96.945 88.0483 96.7249 87.9387 96.2297L73.6882 14.1951H109.04C109.369 14.1951 109.643 13.92 109.643 13.5899V0.605218C109.698 0.275099 109.369 0 109.04 0ZM53.4086 71.1407L59.7117 32.0216L60.2598 26.8497L61.0819 32.0216L66.837 71.1407H53.4086Z" fill="#006FB9"/>
<path d="M7.47799 96.8349C11.3526 96.8349 14.4936 93.7065 14.4936 89.8474C14.4936 85.9883 11.3526 82.8599 7.47799 82.8599C3.60336 82.8599 0.462341 85.9883 0.462341 89.8474C0.462341 93.7065 3.60336 96.8349 7.47799 96.8349Z" fill="#006FB9"/>
</svg>
