<svg width="57" height="56" viewBox="0 0 57 56" fill="none" xmlns="http://www.w3.org/2000/svg">
<rect width="57" height="56" fill="white"/>
<path d="M55.3645 34.043C54.5393 34.043 53.8705 34.7036 53.8705 35.5187V48.6216C53.8676 51.0651 51.863 53.0457 49.3887 53.0486H7.46978C4.99542 53.0457 2.99083 51.0651 2.98791 48.6216V10.1672C2.99083 7.72308 4.99542 5.74304 7.46978 5.74016H20.7345C21.5597 5.74016 22.2284 5.07956 22.2284 4.26449C22.2284 3.44941 21.5597 2.78882 20.7345 2.78882H7.46978C3.34623 2.79343 0.00466861 6.09409 0 10.1672V48.6216C0.00466861 52.6947 3.34623 55.9953 7.46978 55.9999H49.3887C53.5122 55.9953 56.8538 52.6947 56.8585 48.6216V35.5193C56.8585 34.7042 56.1897 34.043 55.3645 34.043Z" fill="#253858"/>
<path d="M23.3604 26.278L45.1739 4.73096L52.2089 11.6799L30.3954 33.2269L23.3604 26.278Z" fill="#253858"/>
<path d="M19.8015 36.7425L27.5759 34.6154L21.9549 29.0632L19.8015 36.7425Z" fill="#253858"/>
<path d="M54.1544 1.07865C52.6949 -0.35955 50.332 -0.35955 48.8725 1.07865L47.2881 2.64367L54.3231 9.59257L55.9075 8.02755C57.3641 6.58589 57.3641 4.25192 55.9075 2.81026L54.1544 1.07865Z" fill="#253858"/>
</svg>
